<svg xmlns="http://www.w3.org/2000/svg" width="172.48" height="49.065" viewBox="0 0 172.48 49.065">
  <g id="Слой_1" data-name="Слой 1" transform="translate(0 0)">
    <path id="Path_5877" data-name="Path 5877" d="M68.732,9.793c-2.461-.362-4.667-.736-6.9-.986a3.64,3.64,0,0,0-1.935.385,1.691,1.691,0,0,0-.8,1.2c-.023.273.555.759.94.863,1.521.428,3.071.742,4.6,1.1,5.624,1.314,6.826,3.951,4.143,9.054C66.978,24.843,64,26.5,60.3,27.091c-4.776.765-9.405-.1-14.037-1.274a45.353,45.353,0,0,0-7.875-1.354,6.807,6.807,0,0,0-6.015,2.467,1.239,1.239,0,0,1-.834.428c-6.076.023-12.151.017-18.494.017a22.683,22.683,0,0,1,4.675-6.835,22.272,22.272,0,0,1,15.57-6.691c5.731-.262,11.214.986,16.619,2.723a61.207,61.207,0,0,0,8.511,1.938,6.611,6.611,0,0,0,3.324-.552,2.171,2.171,0,0,0,1.009-1.691c0-.385-.811-1.044-1.34-1.15-1.924-.345-3.882-.5-5.828-.736a14.09,14.09,0,0,1-1.553-.253c-3.87-.909-4.836-3.485-2.456-6.691,1.875-2.527,4.675-3.381,7.591-3.922a27.662,27.662,0,0,1,10.13.319c.311.06.8.7.736.978C69.672,6.536,69.155,8.229,68.732,9.793Z" transform="translate(-9.29 -2.266)" fill="#0c3e78"/>
    <path id="Path_5878" data-name="Path 5878" d="M372.46,27.416c.9-3.41,1.694-6.613,2.588-9.776.345-1.211.152-1.941-1.15-2.257-1.745-.417-2.4-.129-2.792,1.308-.845,3.146-1.725,6.277-2.5,9.443a1.483,1.483,0,0,1-1.78,1.326c-2.435-.063-4.888-.02-7.525-.02.207-.952.357-1.771.575-2.573,1.725-6.613,3.5-13.226,5.207-19.863.221-.863.575-1.349,1.492-1.412,4.928-.339,9.859-.67,14.756.288a12.1,12.1,0,0,1,3.24,1.093c2.3,1.179,2.7,3.652.638,5.245-1.455,1.124-3.381,1.65-5.124,2.381a12.765,12.765,0,0,1-2.156.44,34.007,34.007,0,0,1,3.407.914c1.981.768,2.826,2.145,2.392,4.184-.61,2.852-1.386,5.67-2.145,8.485-.089.322-.52.779-.8.785C378.059,27.442,375.344,27.416,372.46,27.416Zm0-16.142.38.489a28.44,28.44,0,0,0,3.6-.957c.768-.308,1.1-1.2.1-1.59a4.616,4.616,0,0,0-3.01-.3c-.572.216-.73,1.535-1.073,2.364Z" transform="translate(-255.989 -2.314)" fill="#0c3e78"/>
    <path id="Path_5879" data-name="Path 5879" d="M520.51,50.564c.417-1.518.8-2.927,1.193-4.365,5.13,2.711,7.709,2.588,8.913-.549-.431.072-.776.141-1.124.181a25.78,25.78,0,0,1-3.269.362c-2.987,0-4.716-1.745-4.189-4.649.693-3.793,1.78-7.507,2.757-11.245a1.225,1.225,0,0,1,.926-.647c1.857-.06,3.718-.029,5.814-.029-.641,2.617-1.239,5.049-1.837,7.476q-.431,1.725-.863,3.473c-.207.822-.664,1.725.575,2.136a2.11,2.11,0,0,0,2.694-1.455c.8-3,1.553-6.009,2.361-9.008.825-3.059.181-2.588,3.321-2.628,1.725-.02,3.45.035,5.176.066.075,0,.149.1.368.259-.69,2.654-1.4,5.368-2.108,8.083-.437,1.665-.911,3.318-1.317,4.989a10.936,10.936,0,0,1-8.232,8.5A16.21,16.21,0,0,1,520.51,50.564Z" transform="translate(-370.846 -21.098)" fill="#0c3e78"/>
    <path id="Path_5880" data-name="Path 5880" d="M296.4,45.927l2.637-10.532a3.3,3.3,0,0,0,.147-.555c.046-.673.8-1.645-.417-1.866a1.719,1.719,0,0,0-2.148,1.386c-.863,3.39-1.826,6.751-2.651,10.147-.259,1.064-.661,1.512-1.809,1.466-2.142-.089-4.287-.026-6.633-.026.768-3.022,1.472-5.84,2.2-8.649.589-2.269,1.236-4.523,1.8-6.8a1.271,1.271,0,0,1,1.487-1.15c1.915.055,3.951-.391,5.716.129,1.9.555,3.542-.049,5.3-.121,3.4-.138,5.385,2.013,4.667,5.385-.745,3.511-1.768,6.961-2.723,10.423a1.2,1.2,0,0,1-.828.739C301,45.956,298.854,45.927,296.4,45.927Z" transform="translate(-203.43 -20.82)" fill="#0c3e78"/>
    <path id="Path_5881" data-name="Path 5881" d="M226.976,29.781l-2.522,9.776a14.1,14.1,0,0,0-.334,1.38c-.1.647-.664,1.547.434,1.768a1.657,1.657,0,0,0,2.073-1.308c.627-2.4,1.225-4.816,1.895-7.208.405-1.458.518-3.4,1.507-4.172.934-.733,2.841-.242,4.313-.267,1.09-.017,2.179,0,3.476,0-.773,2.936-1.489,5.65-2.2,8.367-.6,2.269-1.234,4.526-1.76,6.809a1.385,1.385,0,0,1-1.662,1.274c-1.912-.081-3.956.394-5.707-.138s-3.252,0-4.862.089c-3.793.2-5.719-1.9-4.888-5.627.733-3.312,1.708-6.573,2.617-9.842.1-.345.48-.863.745-.863C222.326,29.752,224.561,29.781,226.976,29.781Z" transform="translate(-154.281 -21.097)" fill="#0c3e78"/>
    <path id="Path_5882" data-name="Path 5882" d="M462.97,34.857c.552-1.389.362-1.849-.975-1.777-2.332.127-4.652.466-6.978.713l-.541.06c.152-2.717.345-2.993,2.838-3.085,2.956-.106,5.917-.115,8.873-.089a6.291,6.291,0,0,1,2.085.506c2.734,1.041,3.611,2.027,2.665,4.94-.986,3.042-1.682,6.185-2.412,9.3-.25,1.064-.667,1.489-1.817,1.461-3.189-.083-6.383-.026-9.575-.037-3.255,0-5.7-1.558-6.326-3.977s.949-5.65,3.548-7.1C457.067,34.274,459.965,34.366,462.97,34.857Zm-.043,1.328a6.635,6.635,0,0,0-4.974.357c-.73.408-1.294,1.389-.365,1.748a8.338,8.338,0,0,0,4.123.374C462.2,38.587,462.475,37.161,462.927,36.186Z" transform="translate(-321.086 -21.849)" fill="#0c3e78"/>
    <path id="Path_5883" data-name="Path 5883" d="M59.644,133.511H14.3v-.161H59.69Z" transform="translate(-10.187 -95.007)" fill="#0c3e78"/>
    <path id="Path_5884" data-name="Path 5884" d="M440.385,133.22H485.7v.167H440.27Z" transform="translate(-313.678 -94.915)" fill="#0c3e78"/>
    <path id="Path_5885" data-name="Path 5885" d="M.38,23.114C-1.544,14.951,3.839,4.091,15,.8c10.279-3.031,20.257,3.065,22.87,9.215C31.117,4.439,23.549,2.711,15.343,5.672,7.223,8.605,2.623,14.9.38,23.114Z" transform="translate(0.003 0.001)" fill="#eb9a3f"/>
    <path id="Path_5886" data-name="Path 5886" d="M10.109,36.511a2.125,2.125,0,0,1,.037-1.765c2.346-5.575,5.912-10,11.6-12.493,6.613-2.91,12.939-2.2,19.043,1.466a4.4,4.4,0,0,1,.592.405c.239.207.664.365.495.768s-.592.227-.894.158a39.94,39.94,0,0,0-10.863-.633A23,23,0,0,0,12,34.021C11.42,34.812,10.817,35.591,10.109,36.511Z" transform="translate(-7.078 -14.572)" fill="#f1ba3e"/>
    <path id="Path_5887" data-name="Path 5887" d="M198.151,125.34v2.076h2.4V125.34h.647V130.3h-.647v-2.326h-2.4V130.3h-.641V125.34Z" transform="translate(-140.719 -89.301)" fill="#0c3e78"/>
    <path id="Path_5888" data-name="Path 5888" d="M254.4,127.57a2.317,2.317,0,0,1-2.3,2.617,2.277,2.277,0,0,1-2.234-2.522,2.356,2.356,0,0,1,2.3-2.605A2.281,2.281,0,0,1,254.4,127.57Zm-3.853.081c0,1.061.575,2.013,1.584,2.013s1.593-.937,1.593-2.064c0-.986-.518-2.013-1.584-2.013s-1.593.975-1.593,2.064Z" transform="translate(-178.024 -89.101)" fill="#0c3e78"/>
    <path id="Path_5889" data-name="Path 5889" d="M304.112,125.883H302.6v-.543h3.678v.543h-1.518V130.3h-.647Z" transform="translate(-215.592 -89.301)" fill="#0c3e78"/>
    <path id="Path_5890" data-name="Path 5890" d="M356.568,127.977h-1.932v1.788h2.154v.538H354V125.34h2.68v.538h-2.042v1.567h1.932Z" transform="translate(-252.213 -89.301)" fill="#0c3e78"/>
    <path id="Path_5891" data-name="Path 5891" d="M403.27,125.34h.641v4.425h2.122v.538H403.27Z" transform="translate(-287.316 -89.301)" fill="#0c3e78"/>
    <path id="Path_5892" data-name="Path 5892" d="M201.748,160.99l.451.911,1.009.147-.73.713.173,1-.9-.474-.9.474.173-1-.73-.713,1.006-.147Z" transform="translate(-142.699 -114.7)" fill="#0c3e78"/>
    <path id="Path_5893" data-name="Path 5893" d="M252.221,160.99l.451.911,1.009.147-.73.713.173,1-.9-.474-.9.474.173-1-.73-.713,1.009-.147Z" transform="translate(-178.658 -114.7)" fill="#0c3e78"/>
    <path id="Path_5894" data-name="Path 5894" d="M302.681,160.99l.451.911,1.006.147-.73.713.173,1-.9-.474-.9.474.172-1-.73-.713,1.009-.147Z" transform="translate(-214.609 -114.7)" fill="#0c3e78"/>
    <path id="Path_5895" data-name="Path 5895" d="M353.158,160.99l.451.911,1.009.147-.73.713.173,1-.9-.474-.9.474.173-1-.727-.713,1.006-.147Z" transform="translate(-250.574 -114.7)" fill="#0c3e78"/>
    <path id="Path_5896" data-name="Path 5896" d="M403.761,160.99l.449.911,1.009.147-.73.713.173,1-.9-.474-.9.474.173-1-.73-.713,1.009-.147Z" transform="translate(-286.625 -114.7)" fill="#0c3e78"/>
  </g>
</svg>
