<svg xmlns="http://www.w3.org/2000/svg" viewBox="0 0 1582 3040.38"><defs><style>.cls-1{fill:#eb9a40;}.cls-2{fill:#f1ba3f;}</style></defs><title>sun-bg-min</title><g id="Слой_2" data-name="Слой 2"><g id="Слой_1-2" data-name="Слой 1"><path class="cls-1" d="M0,188.7c4-.17,6.56-3.1,9.48-5.18C107,114,213.78,64.11,329.21,32.33a929.23,929.23,0,0,1,143-27.15,873,873,0,0,1,144.68-3.8A961.44,961.44,0,0,1,922.54,68.76c80.56,32.09,155.9,73.64,225.1,126,71.47,54,134.17,116.59,183.11,192.16a497.67,497.67,0,0,1,37.49,68.21c.8,1.81,2,3.48,1.73,5.63l.1-.09c-4.43.92-6.48-2.9-9.1-5-31.38-25.35-63.64-49.51-97.06-72.11-95.27-64.45-197.14-115.21-307.74-147.67a939.94,939.94,0,0,0-151.33-31.45c-43.72-5.32-87.57-8.1-131.57-7.15A1030.49,1030.49,0,0,0,546,208c-99.79,14.64-195.56,43.2-287.94,83.17A1022.5,1022.5,0,0,0,13,440.44c-3.94,3.24-7,8.18-13,8.26Z"/><path class="cls-2" d="M0,556.7c4.63-.19,6.69-4.1,9.42-6.82C66.47,493.15,130.21,445.12,199.87,405.1c71.92-41.33,148-73.13,227.7-96.2A902.14,902.14,0,0,1,557.3,281.27c26.72-3.63,53.58-5.86,80.57-7,24.67-1.07,49.26-.88,73.9.17a859.39,859.39,0,0,1,146.31,19.21c101.42,22,196.31,60.79,286.68,111.28,25,14,50,28,72.36,46.15a112.34,112.34,0,0,1,9.91,8.37c5.73,5.89,6.54,12.92,3.35,20.33s-8.62,11.36-17,11.49c-10.54.17-20.32-3.37-30.37-5.52-43-9.18-86.24-16.52-129.93-21.46-52.33-5.93-104.8-8.95-157.44-10.31-26.66-.69-53.31-1.27-80-.7-52.28,1.14-104.59,2.33-156.77,6C575,465,492.24,478.06,411.34,501.43a1057.51,1057.51,0,0,0-155.18,57.95C175.74,597,101.74,644.73,33.3,701.16c-8.48,7-16.58,14.45-25,21.57-2.37,2-4.16,5.61-8.34,4Z"/><path class="cls-1" d="M1582,886.7c-14.82-4.08-30-5.92-45.23-7.72a447.17,447.17,0,0,0-65.87-2.39c-39.14,1.17-77.48,7.58-115.17,18-55.64,15.37-107.85,38.43-155.82,70.7-62.18,41.83-111.41,95.82-149.43,160.2-29.49,49.92-51.12,103.15-67,158.82-.64,2.23-1.35,4.45-2.17,6.62-.15.42-1,.59-1.91,1.08-3.42-6.6-3.82-14-4.82-21a354.9,354.9,0,0,1,2.52-116.33c18.66-99.5,66.84-182.67,141.18-250.57,64.16-58.59,139.51-95.88,224.64-113.61,39.81-8.3,80-10.1,120.32-7.3A430.7,430.7,0,0,1,1582,808.7Z"/><path class="cls-1" d="M0,1176.7c4.16.68,5.77-2.86,8-5.08a464.72,464.72,0,0,1,127.44-90.17c43.43-21,89-35.55,136.83-42.24,84.85-11.89,166.5.54,245,34.38,58.93,25.4,110.5,61.28,153.42,109.18a281.12,281.12,0,0,1,43.57,64.31c.87,1.79,2,3.48,1.76,5.62l0,0c-5.33.18-8-4.27-11.46-7-43.33-33.67-89.71-62.18-140.76-82.63-48.22-19.31-98.17-30.73-150.25-33.22-65.78-3.15-129.19,7.94-191,29.72-54.75,19.31-105.2,46.52-150.56,82.94a503.19,503.19,0,0,0-63,61.06c-2.48,2.83-3.94,7.27-8.91,7.08Z"/><path class="cls-2" d="M0,1374.7c5-.25,5.91-4.94,8.06-8,19.88-28.1,41.92-54.31,67.22-77.72,48.16-44.58,103.73-76.62,165.51-98.22,28.35-9.92,57.35-17.45,87.12-21.31a422.19,422.19,0,0,1,99.61-1.36c72.67,7.74,138.63,33.9,200.72,71.16A170.87,170.87,0,0,1,646.12,1252c5.94,4.7,6.92,8.09,4.66,12.74s-6.82,6.7-13.71,5a517.87,517.87,0,0,0-52.92-10.08q-24.23-3.35-48.62-5.24c-41.28-3.2-82.59-2.48-123.87-1.41-66.3,1.72-131.25,11.43-193.57,35.27a490.28,490.28,0,0,0-145.32,86.29,568.58,568.58,0,0,0-66.62,67.5c-1.7,2-3.05,4.47-6.15,4.59Z"/><path class="cls-2" d="M1582,998.7c-5.33.06-10.66.19-16,.17-37-.11-74,.85-110.8,4.23-60.42,5.56-118.69,20-174,45.63-79.44,36.81-143.87,91.87-196.54,161.27q-19.93,26.28-39.85,52.57c-1.55,2-3.38,3.87-5.71,6.52-5.64-12.14-5.26-23.49-.84-34.5,18.84-46.87,42.7-91,72.64-131.78,45.66-62.2,103-110.31,172.65-143.59,47.18-22.57,96.64-38,148.72-44a409.17,409.17,0,0,1,140.87,8.34c2.91.68,5.73,1.81,8.8,1.11Z"/><path class="cls-1" d="M1582,1934.7c-6.34,1.16-11.53,4.88-17,7.82-84,44.71-148.45,109.45-195.79,191.66-28.56,49.61-49.44,102.39-65,157.37-.35,1.26-.74,2.5-1.09,3.67-3.54.3-2.87-2.43-3.21-4-5.54-26.51-7.31-53.26-6.41-80.35,1.59-48.18,12.59-94.17,30.68-138.6,20-49.21,48.23-93.3,83.87-132.72a466.41,466.41,0,0,1,147.44-109.38c8.7-4.13,17.71-7.63,26.57-11.42Z"/><path class="cls-1" d="M324,3022.72c-4.91.23-7.46-3.74-10.7-6.28-43.17-33.78-89.46-62.29-140.4-82.84-49.71-20-101.2-32.15-155-33.72-6-.17-11.93-.77-17.9-1.18v-90c87,12.09,165.19,45,233.37,100.63,35.64,29.06,66.12,62.73,87.05,104.21,1.47,2.93,3.69,5.6,3.59,9.16Z"/><path class="cls-2" d="M1582,2062.7c-26.78,13-51.41,29.39-74.82,47.62-42.62,33.21-79,72.34-110.62,116.14-10.12,14.05-20.88,27.65-31.37,41.43-1,1.28-2.2,2.38-4,4.35-6-12.52-5-24.28-.41-35.88a588.83,588.83,0,0,1,28.8-61.5c22.55-42.27,49.66-81.31,82.71-116,32.14-33.77,68.47-62.21,109.75-84.13Z"/><path class="cls-2" d="M0,2934.7c12.05,3,24.46,2.18,36.69,3.48,46.1,4.93,89.9,17.79,132.31,36.08a544.62,544.62,0,0,1,66.38,34.53A193.15,193.15,0,0,1,254.11,3022c5.91,4.63,6.91,8.09,4.68,12.72-2.31,4.79-6.79,6.68-13.69,5-16.51-3.94-33.15-7-49.93-9.58-42.23-6.5-84.73-8.39-127.37-7.84-22.61.3-45.28-.75-67.8,2.32Z"/><path class="cls-1" d="M716,1252.7a1.53,1.53,0,0,1,1.3,2c0,.18-.66.43-.73.36-.65-.64-1.33-1.32-.61-2.33Z"/><path class="cls-1" d="M324,3022.7a1.54,1.54,0,0,1,1.3,2c0,.18-.66.43-.73.36-.64-.64-1.32-1.32-.61-2.33Z"/><path class="cls-1" d="M1370,460.73l1.11,1c-1.36.57-1.33-.13-1-1.1Z"/></g></g></svg>